<svg xmlns="http://www.w3.org/2000/svg" style="display: none;">
  <!-- 查看图标 -->
  <symbol id="icon-view" viewBox="0 0 24 24" width="16" height="16">
    <circle cx="12" cy="12" r="10" fill="none" stroke="currentColor" stroke-width="2" />
    <path d="M12 16v-4" fill="none" stroke="currentColor" stroke-width="2" stroke-linecap="round" />
    <path d="M12 8h.01" fill="none" stroke="currentColor" stroke-width="2" stroke-linecap="round" />
    <circle cx="12" cy="12" r="3" fill="none" stroke="currentColor" stroke-width="2" />
  </symbol>
  
  <!-- 编辑图标 -->
  <symbol id="icon-edit" viewBox="0 0 24 24" width="16" height="16">
    <path d="M11 4H4a2 2 0 0 0-2 2v14a2 2 0 0 0 2 2h14a2 2 0 0 0 2-2v-7" fill="none" stroke="currentColor" stroke-width="2" stroke-linecap="round" stroke-linejoin="round" />
    <path d="M18.5 2.5a2.121 2.121 0 0 1 3 3L12 15l-4 1 1-4 9.5-9.5z" fill="none" stroke="currentColor" stroke-width="2" stroke-linecap="round" stroke-linejoin="round" />
  </symbol>
  
  <!-- 下载图标 -->
  <symbol id="icon-download" viewBox="0 0 24 24" width="16" height="16">
    <path d="M21 15v4a2 2 0 0 1-2 2H5a2 2 0 0 1-2-2v-4" fill="none" stroke="currentColor" stroke-width="2" stroke-linecap="round" stroke-linejoin="round" />
    <polyline points="7 10 12 15 17 10" fill="none" stroke="currentColor" stroke-width="2" stroke-linecap="round" stroke-linejoin="round" />
    <line x1="12" y1="15" x2="12" y2="3" fill="none" stroke="currentColor" stroke-width="2" stroke-linecap="round" stroke-linejoin="round" />
  </symbol>
  
  <!-- 删除图标 -->
  <symbol id="icon-delete" viewBox="0 0 24 24" width="16" height="16">
    <polyline points="3 6 5 6 21 6" fill="none" stroke="currentColor" stroke-width="2" stroke-linecap="round" stroke-linejoin="round" />
    <path d="M19 6v14a2 2 0 0 1-2 2H7a2 2 0 0 1-2-2V6m3 0V4a2 2 0 0 1 2-2h4a2 2 0 0 1 2 2v2" fill="none" stroke="currentColor" stroke-width="2" stroke-linecap="round" stroke-linejoin="round" />
  </symbol>
  
  <!-- 搜索图标 -->
  <symbol id="icon-search" viewBox="0 0 24 24" width="20" height="20">
    <circle cx="11" cy="11" r="8" fill="none" stroke="currentColor" stroke-width="2" />
    <path d="M21 21l-4.35-4.35" fill="none" stroke="currentColor" stroke-width="2" stroke-linecap="round" stroke-linejoin="round" />
  </symbol>
  
  <!-- 上传图标 -->
  <symbol id="icon-upload" viewBox="0 0 24 24" width="16" height="16">
    <path d="M21 15v4a2 2 0 0 1-2 2H5a2 2 0 0 1-2-2v-4" fill="none" stroke="currentColor" stroke-width="2" stroke-linecap="round" stroke-linejoin="round" />
    <polyline points="17 8 12 3 7 8" fill="none" stroke="currentColor" stroke-width="2" stroke-linecap="round" stroke-linejoin="round" />
    <line x1="12" y1="3" x2="12" y2="15" fill="none" stroke="currentColor" stroke-width="2" stroke-linecap="round" stroke-linejoin="round" />
  </symbol>
  
  <!-- 批量操作图标 -->
  <symbol id="icon-batch" viewBox="0 0 24 24" width="16" height="16">
    <path d="M6 2h9a2 2 0 0 1 2 2v16a2 2 0 0 1-2 2H6a2 2 0 0 1-2-2V4a2 2 0 0 1 2-2z" fill="none" stroke="currentColor" stroke-width="2" />
    <line x1="6" y1="10" x2="15" y2="10" fill="none" stroke="currentColor" stroke-width="2" />
    <line x1="6" y1="6" x2="15" y2="6" fill="none" stroke="currentColor" stroke-width="2" />
    <line x1="6" y1="14" x2="15" y2="14" fill="none" stroke="currentColor" stroke-width="2" />
  </symbol>
  
  <!-- 注销图标 -->
  <symbol id="icon-logout" viewBox="0 0 24 24" width="16" height="16">
    <path d="M9 21H5a2 2 0 0 1-2-2V5a2 2 0 0 1 2-2h4" fill="none" stroke="currentColor" stroke-width="2" stroke-linecap="round" stroke-linejoin="round" />
    <polyline points="16 17 21 12 16 7" fill="none" stroke="currentColor" stroke-width="2" stroke-linecap="round" stroke-linejoin="round" />
    <line x1="21" y1="12" x2="9" y2="12" fill="none" stroke="currentColor" stroke-width="2" stroke-linecap="round" stroke-linejoin="round" />
  </symbol>
  </svg>